<svg width="20" height="20" viewBox="0 0 20 20" fill="none" xmlns="http://www.w3.org/2000/svg">
<path d="M19.2675 7.53969L12.9467 1.21802C12.1644 0.438013 11.1047 0 10 0C8.89529 0 7.83564 0.438013 7.05334 1.21802L0.73251 7.53969C0.499531 7.77118 0.314818 8.0466 0.189079 8.35001C0.0633394 8.65342 -0.000925334 8.97876 1.00662e-05 9.30719V17.488C1.00662e-05 18.1511 0.263402 18.7869 0.732243 19.2558C1.20108 19.7246 1.83697 19.988 2.50001 19.988H17.5C18.1631 19.988 18.7989 19.7246 19.2678 19.2558C19.7366 18.7869 20 18.1511 20 17.488V9.30719C20.0009 8.97876 19.9367 8.65342 19.8109 8.35001C19.6852 8.0466 19.5005 7.77118 19.2675 7.53969V7.53969ZM12.5 18.3214H7.50001V15.043C7.50001 14.38 7.7634 13.7441 8.23224 13.2753C8.70109 12.8064 9.33697 12.543 10 12.543C10.6631 12.543 11.2989 12.8064 11.7678 13.2753C12.2366 13.7441 12.5 14.38 12.5 15.043V18.3214ZM18.3333 17.488C18.3333 17.709 18.2455 17.921 18.0893 18.0773C17.933 18.2336 17.721 18.3214 17.5 18.3214H14.1667V15.043C14.1667 13.938 13.7277 12.8781 12.9463 12.0967C12.1649 11.3153 11.1051 10.8764 10 10.8764C8.89494 10.8764 7.83513 11.3153 7.05373 12.0967C6.27233 12.8781 5.83334 13.938 5.83334 15.043V18.3214H2.50001C2.279 18.3214 2.06704 18.2336 1.91075 18.0773C1.75447 17.921 1.66668 17.709 1.66668 17.488V9.30719C1.66745 9.08634 1.75517 8.87468 1.91084 8.71802L8.23168 2.39886C8.70143 1.9313 9.33723 1.66881 10 1.66881C10.6628 1.66881 11.2986 1.9313 11.7683 2.39886L18.0892 8.72052C18.2442 8.87656 18.3319 9.0872 18.3333 9.30719V17.488Z" fill="white" fill-opacity="0.6"/>
</svg>
